<?xml version="1.0" encoding="iso-8859-1"?>
<!-- Generator: Adobe Illustrator 19.0.0, SVG Export Plug-In . SVG Version: 6.00 Build 0)  -->
<svg version="1.1" id="Capa_1" xmlns="http://www.w3.org/2000/svg" xmlns:xlink="http://www.w3.org/1999/xlink" x="0px" y="0px"
	 viewBox="0 0 60.002 60.002" style="enable-background:new 0 0 60.002 60.002;" xml:space="preserve">
<g>
	<circle cx="41.379" cy="30" r="1"/>
	<circle cx="44.379" cy="34" r="1"/>
	<circle cx="44.379" cy="41" r="1"/>
	<circle cx="16.379" cy="30" r="1"/>
	<circle cx="16.379" cy="35" r="1"/>
	<circle cx="13.379" cy="40" r="1"/>
	<circle cx="33.379" cy="32" r="1"/>
	<path d="M58.563,55.303c0.16-1.067,0.002-2.157-0.469-3.154c-0.563-1.192-1.526-2.101-2.715-2.638V5h2c0.553,0,1-0.448,1-1
		s-0.447-1-1-1h-0.586l1.293-1.293c0.391-0.391,0.391-1.023,0-1.414s-1.023-0.391-1.414,0l-2.293,2.293l-2.293-2.293
		c-0.391-0.391-1.023-0.391-1.414,0s-0.391,1.023,0,1.414L51.965,3h-16.85c-1.267-1.811-3.364-3-5.736-3c-3.859,0-7,3.14-7,7v2.559
		c-3.25,0.561-6,1.61-6,3.441c0,0.107,0.032,0.205,0.05,0.306l-0.031,0.306l1.746,8.73C18.916,26.2,22.331,29,26.264,29h6.063
		c3.934,0,7.348-2.8,8.119-6.657l1.715-8.572l0.027-0.223l-0.027-0.236c0.019-0.103,0.051-0.203,0.051-0.312
		c0-1.814-2.664-2.861-5.833-3.426V7c0-0.695-0.105-1.366-0.295-2h17.295v43.751l-12.714-4.553
		c0.848-4.969-1.585-10.622-1.699-10.883c-0.189-0.433-0.656-0.676-1.121-0.577c-0.463,0.097-0.795,0.505-0.795,0.979
		c0,1.889-1.778,3.868-3.227,5.118c-0.505-2.411-1.772-4.394-1.839-4.497c-0.24-0.372-0.696-0.543-1.123-0.416
		c-0.425,0.125-0.717,0.516-0.717,0.959c0,0.805-1.748,1.216-2.972,1.309c-0.699-1.09,0-3.633,0.497-4.797
		c0.138-0.322,0.097-0.694-0.107-0.978c-0.206-0.285-0.551-0.445-0.893-0.413c-7.039,0.574-8.09,4.519-8.09,6.82
		c0,1.26,0.261,2.378,0.78,3.348L18.598,40c-0.336-0.077-0.689,0.028-0.932,0.274c-0.243,0.246-0.341,0.6-0.261,0.936l0.816,3.388
		L6.379,48.839V5h14c0.553,0,1-0.448,1-1s-0.447-1-1-1H7.793l1.293-1.293c0.391-0.391,0.391-1.023,0-1.414s-1.023-0.391-1.414,0
		L5.379,2.586L3.086,0.293c-0.391-0.391-1.023-0.391-1.414,0s-0.391,1.023,0,1.414L2.965,3H2.379c-0.553,0-1,0.448-1,1s0.447,1,1,1
		h2v44.609c-0.087,0.044-0.173,0.09-0.257,0.139c-0.039,0.022-0.079,0.042-0.117,0.066c-0.26,0.159-0.5,0.342-0.726,0.538
		c-0.049,0.042-0.099,0.082-0.146,0.126c-0.215,0.2-0.409,0.419-0.587,0.648c-0.041,0.053-0.084,0.104-0.123,0.159
		c-0.18,0.25-0.337,0.515-0.473,0.79c-0.013,0.026-0.032,0.047-0.044,0.073C1.895,52.173,1.891,52.2,1.88,52.224
		c-0.131,0.288-0.24,0.587-0.32,0.895c-0.013,0.048-0.021,0.097-0.033,0.146c-0.071,0.306-0.121,0.617-0.139,0.934
		c-0.002,0.037,0,0.073-0.001,0.11c-0.012,0.324,0.001,0.651,0.049,0.979c0.002,0.015,0.006,0.029,0.008,0.044
		c0.052,0.343,0.136,0.686,0.257,1.025c0.115,0.32,0.262,0.617,0.427,0.901c0.051,0.088,0.111,0.169,0.167,0.254
		c0.125,0.19,0.257,0.372,0.402,0.543c0.077,0.091,0.157,0.178,0.24,0.263c0.156,0.161,0.322,0.308,0.495,0.448
		c0.08,0.065,0.156,0.134,0.24,0.194c0.263,0.188,0.538,0.356,0.829,0.495c0.01,0.005,0.019,0.013,0.029,0.017
		c0.216,0.102,0.437,0.185,0.66,0.258c0.05,0.016,0.101,0.028,0.151,0.043c0.2,0.059,0.401,0.106,0.605,0.141
		c0.058,0.01,0.116,0.021,0.174,0.029c0.251,0.035,0.502,0.059,0.755,0.059c0.003,0,0.005-0.001,0.008-0.001c0,0,0.001,0,0.002,0
		c0.614,0,1.238-0.104,1.849-0.322L25.989,53.5c1.071,0.323,2.21,0.5,3.402,0.5c0.053,0,0.104,0,0.157-0.001
		c1.378-0.017,2.685-0.266,3.89-0.705l17.829,6.385c0.602,0.216,1.226,0.323,1.848,0.323c0.002,0,0.004,0,0.007,0
		c0.001,0,0.003,0,0.004,0c0.801,0,1.6-0.178,2.346-0.53c0.796-0.376,1.456-0.94,1.979-1.617c0.351-0.452,0.651-0.946,0.849-1.499
		C58.422,56.011,58.51,55.658,58.563,55.303z M22.264,14.398c-0.01-0.002-0.02-0.004-0.03-0.006c-2.201-0.426-3.514-0.99-3.81-1.404
		c0.338-0.42,1.704-0.988,3.955-1.409v2.839C22.342,14.411,22.301,14.405,22.264,14.398z M38.485,21.951
		C37.9,24.876,35.31,27,32.327,27h-6.063c-2.983,0-5.574-2.124-6.159-5.049l-1.291-6.455c0.038,0.016,0.085,0.027,0.123,0.043
		c0.321,0.126,0.658,0.245,1.019,0.352c0.001,0,0.001,0,0.002,0.001c2.01,0.597,4.562,0.907,6.871,1.034
		c0.019,0.001,0.037,0.002,0.055,0.003c0.397,0.021,0.784,0.038,1.162,0.049c0.067,0.002,0.134,0.005,0.2,0.006
		C28.638,16.994,29.02,17,29.379,17c0.35,0,0.721-0.006,1.102-0.016c0.236-0.005,0.473-0.014,0.711-0.023
		c0.072-0.003,0.144-0.006,0.217-0.009c3.062-0.13,6.251-0.558,8.36-1.424L38.485,21.951z M40.175,12.992
		c-0.015,0.022-0.025,0.042-0.048,0.065c-0.002,0.002-0.003,0.003-0.005,0.005c-0.041,0.042-0.094,0.087-0.159,0.134
		c-0.003,0.002-0.006,0.004-0.008,0.006c-0.065,0.046-0.142,0.095-0.229,0.144c-0.006,0.003-0.012,0.007-0.018,0.01
		c-0.086,0.048-0.184,0.098-0.291,0.148c-0.012,0.006-0.025,0.012-0.037,0.018c-0.104,0.048-0.219,0.097-0.343,0.146
		c-0.022,0.009-0.042,0.017-0.065,0.026c-0.119,0.046-0.25,0.093-0.386,0.14c-0.034,0.012-0.066,0.023-0.101,0.034
		c-0.132,0.044-0.275,0.088-0.423,0.131c-0.047,0.014-0.092,0.028-0.14,0.041c-0.144,0.041-0.299,0.081-0.457,0.121
		c-0.061,0.016-0.12,0.031-0.183,0.047c-0.156,0.038-0.322,0.074-0.49,0.111c-0.076,0.016-0.149,0.033-0.227,0.049
		c-0.166,0.034-0.344,0.067-0.522,0.099c-0.091,0.017-0.179,0.034-0.273,0.05c-0.178,0.03-0.366,0.059-0.555,0.087
		c-0.106,0.016-0.207,0.032-0.316,0.047c-0.189,0.026-0.39,0.05-0.589,0.074c-0.12,0.014-0.236,0.03-0.36,0.043
		c-0.203,0.022-0.417,0.041-0.63,0.06c-0.132,0.012-0.259,0.025-0.396,0.036c-0.223,0.018-0.46,0.032-0.694,0.046
		c-0.137,0.009-0.269,0.019-0.409,0.026c-0.254,0.013-0.521,0.022-0.786,0.031c-0.134,0.005-0.261,0.012-0.398,0.015
		C30.231,14.994,29.812,15,29.379,15c-0.411,0-0.811-0.005-1.201-0.015c-0.105-0.003-0.204-0.008-0.308-0.011
		c-0.281-0.009-0.562-0.018-0.832-0.031c-0.109-0.005-0.211-0.013-0.318-0.02c-0.259-0.015-0.518-0.03-0.766-0.049
		c-0.088-0.007-0.17-0.015-0.256-0.022c-0.259-0.021-0.516-0.043-0.763-0.069c-0.071-0.007-0.137-0.016-0.207-0.023
		c-0.119-0.013-0.233-0.027-0.349-0.041V11.28c1.439-0.17,3.108-0.28,5-0.28C36.165,11,39.674,12.349,40.175,12.992z M34.379,7
		v2.283C32.62,9.081,30.844,9,29.379,9c-1.466,0-3.24,0.079-5,0.276V7c0-2.757,2.243-5,5-5c1.116,0,2.136,0.38,2.969,1h-3.969
		c-0.553,0-1,0.448-1,1s0.447,1,1,1h5.576C34.224,5.614,34.379,6.288,34.379,7z M51.94,57.794c-0.88-0.315-1.584-0.954-1.983-1.799
		s-0.446-1.796-0.131-2.676c0.315-0.88,0.954-1.584,1.8-1.984c0.475-0.225,0.982-0.337,1.493-0.337c0.389,0,0.779,0.068,1.157,0.2
		l0.026,0.009c0.875,0.313,1.578,0.954,1.979,1.802c0.308,0.653,0.403,1.365,0.289,2.058c-0.034,0.206-0.082,0.412-0.154,0.613
		c-0.115,0.319-0.284,0.605-0.479,0.872c-0.341,0.466-0.783,0.854-1.323,1.109c-0.393,0.187-0.808,0.289-1.227,0.322
		C52.902,58.02,52.412,57.963,51.94,57.794z M6.883,50.997c0.51,0,1.019,0.113,1.493,0.337c0.845,0.399,1.483,1.104,1.799,1.984
		c0.315,0.88,0.269,1.831-0.131,2.676S8.94,57.479,8.06,57.794c-0.384,0.138-0.782,0.194-1.178,0.194
		c-0.06,0-0.121,0.011-0.181,0.008c-0.178-0.009-0.353-0.042-0.528-0.079c-0.047-0.01-0.096-0.01-0.143-0.022
		c-0.22-0.056-0.436-0.133-0.646-0.232c-0.209-0.099-0.405-0.217-0.587-0.351c-0.07-0.052-0.129-0.118-0.195-0.175
		c-0.105-0.09-0.214-0.176-0.308-0.278c-0.074-0.081-0.132-0.176-0.199-0.264c-0.072-0.095-0.151-0.184-0.213-0.287
		c-0.062-0.103-0.106-0.22-0.158-0.331c-0.047-0.1-0.103-0.193-0.141-0.299c-0.019-0.052-0.024-0.106-0.04-0.159
		c-0.053-0.173-0.104-0.347-0.129-0.522C3.41,54.959,3.414,54.92,3.41,54.88c-0.171-1.572,0.739-3.118,2.29-3.674l0.026-0.009
		C6.104,51.065,6.494,50.997,6.883,50.997z M12.021,56.378c0.166-0.451,0.278-0.913,0.321-1.383c0.012,0,0.024,0.006,0.036,0.006
		c0.104,0,0.211-0.017,0.316-0.052l6-2c0.523-0.175,0.807-0.741,0.632-1.265c-0.174-0.523-0.737-0.807-1.265-0.632l-5.91,1.97
		c-0.035-0.125-0.051-0.253-0.095-0.377c-0.089-0.249-0.2-0.483-0.319-0.71l2.957-0.986c0.523-0.175,0.807-0.741,0.632-1.265
		c-0.175-0.523-0.736-0.808-1.265-0.632l-3,1c-0.209,0.07-0.366,0.213-0.484,0.38c-0.274-0.248-0.569-0.468-0.884-0.656l9.069-3.248
		c0.015,0.043,0.035,0.083,0.05,0.126c0.046,0.125,0.097,0.246,0.147,0.369c0.075,0.186,0.15,0.372,0.233,0.552
		c0.03,0.065,0.063,0.126,0.094,0.19c0.678,1.401,1.602,2.605,2.742,3.574c0.418,0.359,0.86,0.688,1.328,0.979L12.021,56.378z
		 M29.522,52c-1.059,0.015-2.233-0.164-3.387-0.58c-0.227-0.081-0.447-0.171-0.664-0.268c-0.132-0.059-0.264-0.121-0.395-0.187
		c-0.177-0.089-0.348-0.186-0.516-0.285c-0.168-0.099-0.333-0.204-0.496-0.315c-0.166-0.114-0.33-0.23-0.487-0.354
		c-0.1-0.078-0.198-0.16-0.295-0.244c-0.181-0.156-0.355-0.319-0.523-0.49c-0.052-0.052-0.106-0.101-0.157-0.155
		c-0.224-0.241-0.436-0.495-0.633-0.762c-0.034-0.046-0.065-0.095-0.098-0.142c-0.163-0.229-0.316-0.468-0.46-0.715
		c-0.043-0.074-0.085-0.149-0.126-0.225c-0.129-0.237-0.246-0.482-0.357-0.733c-0.035-0.079-0.072-0.155-0.105-0.237
		c-0.133-0.326-0.253-0.661-0.355-1.01c-0.001-0.005-0.003-0.009-0.005-0.014l-0.736-2.982l2.411,0.542
		c0.486,0.109,0.961-0.146,1.146-0.598s0.016-0.972-0.399-1.229c-1.551-0.958-2.304-2.331-2.304-4.196c0-0.971,0-3.745,4.701-4.624
		c-0.479,1.724-0.844,4.373,0.826,5.777c0.18,0.152,0.408,0.235,0.644,0.235c0.004,0,0.008,0,0.011,0
		c0.389-0.004,2.902-0.078,4.354-1.233c0.447,1.009,0.913,2.383,0.913,3.727c0,0.368,0.202,0.706,0.525,0.88
		c0.323,0.176,0.717,0.158,1.023-0.044c0.163-0.107,2.985-1.987,4.511-4.613c0.623,2.263,1.176,5.49,0.324,8.132
		c-0.092,0.348-0.202,0.684-0.325,1.011c-0.025,0.068-0.055,0.13-0.082,0.197c-0.105,0.263-0.218,0.52-0.344,0.767
		c-0.031,0.061-0.063,0.12-0.095,0.179c-0.135,0.253-0.28,0.499-0.436,0.735c-0.028,0.042-0.055,0.086-0.084,0.128
		c-0.367,0.537-0.789,1.026-1.26,1.465c-0.081,0.075-0.165,0.144-0.248,0.216c-0.139,0.12-0.282,0.235-0.429,0.347
		c-0.122,0.092-0.244,0.184-0.369,0.269c-0.103,0.07-0.212,0.134-0.318,0.2c-0.279,0.172-0.562,0.329-0.851,0.467
		c-0.077,0.037-0.153,0.075-0.232,0.11C32.062,51.723,30.723,51.984,29.522,52z M36.588,51.508c0.031-0.025,0.06-0.051,0.09-0.076
		c0.187-0.156,0.371-0.316,0.547-0.484c0.081-0.077,0.159-0.158,0.238-0.238c0.122-0.124,0.243-0.248,0.36-0.378
		c0.106-0.117,0.206-0.239,0.306-0.362c0.085-0.104,0.17-0.207,0.251-0.314c0.109-0.144,0.213-0.292,0.316-0.442
		c0.068-0.099,0.135-0.197,0.2-0.298c0.1-0.156,0.194-0.317,0.286-0.479c0.061-0.108,0.122-0.215,0.18-0.325
		c0.083-0.157,0.16-0.317,0.236-0.479c0.059-0.127,0.118-0.254,0.173-0.384c0.064-0.151,0.124-0.305,0.182-0.461
		c0.055-0.147,0.109-0.295,0.158-0.445c0.022-0.065,0.048-0.128,0.069-0.194l10.157,3.637c-0.386,0.227-0.739,0.493-1.054,0.801
		c-0.111-0.244-0.313-0.444-0.587-0.536l-3-1c-0.527-0.176-1.09,0.109-1.265,0.632c-0.175,0.524,0.108,1.09,0.632,1.265l3,1
		c0.065,0.022,0.13,0.024,0.194,0.032c-0.112,0.217-0.23,0.43-0.314,0.664c-0.056,0.157-0.079,0.32-0.121,0.48
		c-0.044-0.023-0.079-0.057-0.127-0.073l-6-2c-0.529-0.175-1.09,0.109-1.265,0.632c-0.175,0.524,0.108,1.09,0.632,1.265l6,2
		C47.168,54.984,47.274,55,47.379,55c0.094,0,0.186-0.018,0.274-0.043c0.041,0.483,0.157,0.957,0.327,1.42l-12.105-4.336
		C36.119,51.874,36.357,51.696,36.588,51.508z"/>
</g>
<g>
</g>
<g>
</g>
<g>
</g>
<g>
</g>
<g>
</g>
<g>
</g>
<g>
</g>
<g>
</g>
<g>
</g>
<g>
</g>
<g>
</g>
<g>
</g>
<g>
</g>
<g>
</g>
<g>
</g>
</svg>
