<?xml version="1.0" encoding="iso-8859-1"?>
<!-- Generator: Adobe Illustrator 19.0.0, SVG Export Plug-In . SVG Version: 6.00 Build 0)  -->
<svg version="1.1" id="Capa_1" xmlns="http://www.w3.org/2000/svg" xmlns:xlink="http://www.w3.org/1999/xlink" x="0px" y="0px"
	 viewBox="0 0 60 60" style="enable-background:new 0 0 60 60;" xml:space="preserve">
<g>
	<path d="M59,24c-3.53,0-6.451-2.63-6.925-6.033C53.341,19.223,55.081,20,57,20c0.553,0,1-0.447,1-1s-0.447-1-1-1
		c-2.757,0-5-2.243-5-5v-0.026C52.838,13.609,53.87,14,55,14c0.553,0,1-0.447,1-1s-0.447-1-1-1c-1.654,0-3-1.346-3-3
		c0-0.553-0.447-1-1-1s-1,0.447-1,1c0,1.654-1.346,3-3,3c-0.553,0-1,0.447-1,1s0.447,1,1,1c1.13,0,2.162-0.391,3-1.026V13
		c0,2.757-2.243,5-5,5c-0.553,0-1,0.447-1,1s0.447,1,1,1c1.919,0,3.659-0.777,4.925-2.033C49.451,21.37,46.53,24,43,24
		c-0.553,0-1,0.447-1,1s0.447,1,1,1c2.826,0,5.349-1.312,7-3.355V27c0,0.553,0.447,1,1,1s1-0.447,1-1v-4.355
		C53.651,24.688,56.174,26,59,26c0.553,0,1-0.447,1-1S59.553,24,59,24z"/>
	<path d="M8,22.645V27c0,0.553,0.447,1,1,1s1-0.447,1-1v-4.355C11.651,24.688,14.174,26,17,26c0.553,0,1-0.447,1-1s-0.447-1-1-1
		c-3.53,0-6.451-2.63-6.925-6.033C11.341,19.223,13.081,20,15,20c0.553,0,1-0.447,1-1s-0.447-1-1-1c-2.757,0-5-2.243-5-5v-0.026
		C10.838,13.609,11.87,14,13,14c0.553,0,1-0.447,1-1s-0.447-1-1-1c-1.654,0-3-1.346-3-3c0-0.553-0.447-1-1-1S8,8.447,8,9
		c0,1.654-1.346,3-3,3c-0.553,0-1,0.447-1,1s0.447,1,1,1c1.13,0,2.162-0.391,3-1.026V13c0,2.757-2.243,5-5,5c-0.553,0-1,0.447-1,1
		s0.447,1,1,1c1.919,0,3.659-0.777,4.925-2.033C7.451,21.37,4.53,24,1,24c-0.553,0-1,0.447-1,1s0.447,1,1,1
		C3.826,26,6.349,24.688,8,22.645z"/>
	<path d="M22,21c2.826,0,5.349-1.312,7-3.355V22c0,0.553,0.447,1,1,1s1-0.447,1-1v-4.355C32.651,19.688,35.174,21,38,21
		c0.553,0,1-0.447,1-1s-0.447-1-1-1c-3.53,0-6.451-2.63-6.925-6.033C32.341,14.223,34.081,15,36,15c0.553,0,1-0.447,1-1
		s-0.447-1-1-1c-2.757,0-5-2.243-5-5V7.974C31.838,8.609,32.87,9,34,9c0.553,0,1-0.447,1-1s-0.447-1-1-1c-1.654,0-3-1.346-3-3
		c0-0.553-0.447-1-1-1s-1,0.447-1,1c0,1.654-1.346,3-3,3c-0.553,0-1,0.447-1,1s0.447,1,1,1c1.13,0,2.162-0.391,3-1.026V8
		c0,2.757-2.243,5-5,5c-0.553,0-1,0.447-1,1s0.447,1,1,1c1.919,0,3.659-0.777,4.925-2.033C28.451,16.37,25.53,19,22,19
		c-0.553,0-1,0.447-1,1S21.447,21,22,21z"/>
	<path d="M55.674,43h-8.762l-5.09-8h5.852C48.956,35,50,33.956,50,32.674v-2.348C50,29.044,48.956,28,47.674,28H13.326
		C12.044,28,11,29.044,11,30.326v2.348C11,33.956,12.044,35,13.326,35h5.852l-5.09,8H4.326C3.044,43,2,44.044,2,45.326v2.348
		C2,48.956,3.044,50,4.326,50h5.306l-2.725,4.283c-0.347,0.545-0.368,1.234-0.058,1.8S7.754,57,8.398,57h4.18
		c0.606,0,1.164-0.306,1.492-0.818L18.003,50h24.994l3.934,6.183C47.258,56.694,47.815,57,48.422,57h4.18
		c0.645,0,1.238-0.352,1.549-0.917s0.289-1.255-0.058-1.801L51.368,50h4.306C56.956,50,58,48.956,58,47.674v-2.348
		C58,44.044,56.956,43,55.674,43z M44.542,43h-3.63l-5.091-8h3.63L44.542,43z M38.542,43H22.458l5.09-8h5.903L38.542,43z M13.326,33
		C13.146,33,13,32.854,13,32.674v-2.348C13,30.146,13.146,30,13.326,30h34.348C47.854,30,48,30.146,48,30.326v2.348
		C48,32.854,47.854,33,47.674,33h-7.125h-8.37h-3.357h-8.37H13.326z M21.549,35h3.63l-5.091,8h-3.63L21.549,35z M12.451,55h-3.63
		l3.182-5h3.63L12.451,55z M52.179,55h-3.63l-3.182-5h3.63L52.179,55z M56,47.674C56,47.854,55.854,48,55.674,48h-5.579h-8.37
		H19.275h-8.37H4.326C4.146,48,4,47.854,4,47.674v-2.348C4,45.146,4.146,45,4.326,45h8.489h8.37h18.629h8.37h7.489
		C55.854,45,56,45.146,56,45.326V47.674z"/>
</g>
<g>
</g>
<g>
</g>
<g>
</g>
<g>
</g>
<g>
</g>
<g>
</g>
<g>
</g>
<g>
</g>
<g>
</g>
<g>
</g>
<g>
</g>
<g>
</g>
<g>
</g>
<g>
</g>
<g>
</g>
</svg>
